<svg width="18" height="16" viewBox="0 0 18 16" fill="none" xmlns="http://www.w3.org/2000/svg">
<path id="Path 12" d="M8.42758 0.272619L0.0635783 15.2396C0.0210502 15.3157 -0.000857969 15.4015 2.57123e-05 15.4887C0.000909394 15.5758 0.0245543 15.6612 0.0686161 15.7364C0.112678 15.8116 0.175627 15.874 0.251221 15.9173C0.326816 15.9607 0.412431 15.9835 0.499578 15.9836H17.2276C17.3147 15.9835 17.4003 15.9607 17.4759 15.9173C17.5515 15.874 17.6145 15.8116 17.6585 15.7364C17.7026 15.6612 17.7262 15.5758 17.7271 15.4887C17.728 15.4015 17.7061 15.3157 17.6636 15.2396L9.29958 0.272619C9.25619 0.194952 9.19286 0.130269 9.11613 0.0852429C9.0394 0.040217 8.95204 0.0164795 8.86308 0.0164795C8.77411 0.0164795 8.68676 0.040217 8.61003 0.0852429C8.5333 0.130269 8.46997 0.194952 8.42658 0.272619H8.42758ZM9.86358 13.7336C9.86358 13.7999 9.83724 13.8635 9.79035 13.9104C9.74347 13.9573 9.67988 13.9836 9.61358 13.9836H8.11358C8.04727 13.9836 7.98369 13.9573 7.9368 13.9104C7.88992 13.8635 7.86358 13.7999 7.86358 13.7336V12.2336C7.86358 12.1673 7.88992 12.1037 7.9368 12.0568C7.98369 12.01 8.04727 11.9836 8.11358 11.9836H9.61358C9.67988 11.9836 9.74347 12.01 9.79035 12.0568C9.83724 12.1037 9.86358 12.1673 9.86358 12.2336V13.7336ZM9.86358 10.7336C9.86358 10.7999 9.83724 10.8635 9.79035 10.9104C9.74347 10.9573 9.67988 10.9836 9.61358 10.9836H8.11358C8.04727 10.9836 7.98369 10.9573 7.9368 10.9104C7.88992 10.8635 7.86358 10.7999 7.86358 10.7336V4.73362C7.86358 4.66732 7.88992 4.60373 7.9368 4.55684C7.98369 4.50996 8.04727 4.48362 8.11358 4.48362H9.61358C9.67988 4.48362 9.74347 4.50996 9.79035 4.55684C9.83724 4.60373 9.86358 4.66732 9.86358 4.73362V10.7336Z" fill="#B40000"/>
</svg>
