<svg width="18" height="18" viewBox="0 0 18 18" fill="none" xmlns="http://www.w3.org/2000/svg">
<g id="Frame">
<path id="iconFill" fill-rule="evenodd" clip-rule="evenodd" d="M12 9C12 9.1309 11.9742 9.26053 11.924 9.38142C11.8738 9.50232 11.8002 9.61212 11.7075 9.7045L7.71599 13.6945C7.62771 13.7993 7.51883 13.8848 7.39611 13.9458C7.27339 14.0068 7.13945 14.0419 7.00261 14.0489C6.86576 14.0559 6.72893 14.0348 6.6006 13.9867C6.47227 13.9387 6.35519 13.8648 6.25661 13.7696C6.15803 13.6744 6.08007 13.56 6.02755 13.4335C5.97504 13.3069 5.9491 13.1709 5.95134 13.0339C5.95358 12.8969 5.98395 12.7618 6.04057 12.637C6.09719 12.5122 6.17885 12.4004 6.28049 12.3085L6.30499 12.284L9.59049 9L6.30449 5.715C6.13456 5.52692 6.0424 5.28132 6.04665 5.02788C6.05089 4.77443 6.15122 4.53206 6.32735 4.34977C6.50348 4.16748 6.74226 4.05888 6.99541 4.04592C7.24856 4.03297 7.49718 4.11664 7.69099 4.28L7.71549 4.3045L11.707 8.2945C11.7999 8.38696 11.8737 8.4969 11.924 8.61798C11.9743 8.73906 12.0001 8.86889 12 9Z" fill="#222222"/>
</g>
</svg>
