<svg width="18" height="18" viewBox="0 0 18 18" fill="none" xmlns="http://www.w3.org/2000/svg">
<g id="Frame">
<path id="iconFill" fill-rule="evenodd" clip-rule="evenodd" d="M15.546 7H14.818C14.8418 5.43294 14.2423 3.92057 13.1513 2.79543C12.0603 1.67028 10.5671 1.02448 9.00001 1C7.43296 1.02448 5.93977 1.67028 4.84876 2.79543C3.75775 3.92057 3.15823 5.43294 3.18201 7H2.45401C2.06236 7.00632 1.68923 7.16785 1.4166 7.4491C1.14397 7.73036 0.994133 8.10834 1.00001 8.5V11.5C0.994133 11.8917 1.14397 12.2696 1.4166 12.5509C1.68923 12.8322 2.06236 12.9937 2.45401 13H4.63601V7H4.60001C4.5821 5.81486 5.03552 4.67111 5.8606 3.82015C6.68568 2.9692 7.81489 2.48069 9.00001 2.462C10.1851 2.48069 11.3144 2.9692 12.1394 3.82015C12.9645 4.67111 13.4179 5.81486 13.4 7H13.364V12.669C13.031 13.2547 12.5849 13.7685 12.0517 14.1805C11.5185 14.5925 10.9088 14.8945 10.258 15.069C10.1062 14.8838 9.91372 14.7361 9.69553 14.6374C9.47735 14.5387 9.23934 14.4917 9.00001 14.5C8.65906 14.4622 8.31677 14.5585 8.04545 14.7684C7.77414 14.9783 7.59505 15.2855 7.54601 15.625C7.59505 15.9645 7.77414 16.2717 8.04545 16.4816C8.31677 16.6915 8.65906 16.7878 9.00001 16.75C9.30815 16.7738 9.61551 16.6951 9.87418 16.5259C10.1328 16.3568 10.3283 16.1068 10.43 15.815C11.1881 15.6117 11.8975 15.2576 12.5157 14.7739C13.1339 14.2902 13.6482 13.6869 14.028 13H15.546C15.9377 12.9937 16.3108 12.8322 16.5834 12.5509C16.8561 12.2696 17.0059 11.8917 17 11.5V8.5C17.0059 8.10834 16.8561 7.73036 16.5834 7.4491C16.3108 7.16785 15.9377 7.00632 15.546 7Z" fill="#222222"/>
</g>
</svg>
