<svg width="18" height="18" viewBox="0 0 18 18" fill="none" xmlns="http://www.w3.org/2000/svg">
<g id="Frame" clip-path="url(#clip0_202_3210)">
<path id="iconFill" fill-rule="evenodd" clip-rule="evenodd" d="M9 0.5C7.31886 0.5 5.67548 0.998516 4.27766 1.93251C2.87984 2.8665 1.79037 4.19402 1.14703 5.74719C0.503683 7.30036 0.335355 9.00943 0.663329 10.6583C0.991303 12.3071 1.80085 13.8217 2.9896 15.0104C4.17834 16.1992 5.6929 17.0087 7.34174 17.3367C8.99057 17.6646 10.6996 17.4963 12.2528 16.853C13.806 16.2096 15.1335 15.1202 16.0675 13.7223C17.0015 12.3245 17.5 10.6811 17.5 9C17.5 6.74566 16.6045 4.58365 15.0104 2.98959C13.4164 1.39553 11.2543 0.5 9 0.5ZM14.491 14.0916C13.6543 13.2416 12.5602 12.6917 11.3789 12.5275C11.2208 12.506 11.0761 12.4275 10.972 12.3067C10.8678 12.1859 10.8114 12.0312 10.8134 11.8718V10.9256C10.8169 10.7696 10.8759 10.6199 10.9798 10.5034C11.7042 9.6245 12.1066 8.52441 12.1201 7.3855C12.1201 5.02521 10.8659 3.70587 8.97669 3.70587C7.08748 3.70587 5.79769 5.07422 5.79769 7.3855C5.82981 8.53024 6.24995 9.63008 6.9892 10.5047C7.09324 10.621 7.1523 10.7707 7.15576 10.9268V11.8684C7.15836 12.0287 7.10157 12.1844 6.99634 12.3054C6.8911 12.4263 6.74485 12.5041 6.5857 12.5238C5.40753 12.6758 4.3117 13.21 3.46607 14.0443C2.48243 12.9687 1.83353 11.6298 1.59871 10.1913C1.36389 8.75281 1.55333 7.27706 2.14387 5.94451C2.73441 4.61195 3.70045 3.48036 4.92387 2.6881C6.14728 1.89583 7.57505 1.47723 9.03258 1.48349C10.4901 1.48974 11.9142 1.92058 13.1308 2.72331C14.3474 3.52605 15.3037 4.66589 15.8827 6.00346C16.4618 7.34103 16.6386 8.81836 16.3914 10.2548C16.1443 11.6912 15.4838 13.0245 14.491 14.0916Z" fill="#222222"/>
</g>
<defs>
<clipPath id="clip0_202_3210">
<rect width="18" height="18" fill="white"/>
</clipPath>
</defs>
</svg>
