<svg width="18" height="18" viewBox="0 0 18 18" fill="none" xmlns="http://www.w3.org/2000/svg">
<g id="Frame">
<path id="iconPrimary" d="M9.95431 8.99999L14.6401 4.31454C14.9038 4.05087 14.9038 3.62372 14.6401 3.36005C14.3765 3.09637 13.9493 3.09637 13.6856 3.36005L8.99976 8.04549L4.31387 3.36005C4.0502 3.09637 3.62305 3.09637 3.35938 3.36005C3.0957 3.62372 3.0957 4.05087 3.35938 4.31454L8.04521 8.99999L3.35938 13.6854C3.0957 13.9491 3.0957 14.3763 3.35938 14.6399C3.49121 14.7718 3.66392 14.8377 3.83662 14.8377C4.00932 14.8377 4.18203 14.7718 4.31386 14.6399L8.99975 9.95448L13.6856 14.6399C13.8175 14.7718 13.9902 14.8377 14.1629 14.8377C14.3356 14.8377 14.5083 14.7718 14.6401 14.6399C14.9038 14.3763 14.9038 13.9491 14.6401 13.6854L9.95431 8.99999Z" fill="#292929"/>
</g>
</svg>
