<svg xmlns="http://www.w3.org/2000/svg" width="20" height="20" viewBox="0 0 20 20" fill="none">
  <path d="M6.01605 13.8286C5.84064 13.6494 5.62324 13.5587 5.37138 13.5587C5.12037 13.5587 4.9035 13.6472 4.72854 13.823C4.55373 13.9987 4.46571 14.2157 4.46571 14.4665C4.46571 14.7165 4.5515 14.933 4.72294 15.1082L4.72295 15.1082C4.89508 15.2841 5.11083 15.3722 5.36168 15.3722C5.6116 15.3722 5.82944 15.2865 6.00815 15.1161C6.1884 14.9442 6.27928 14.7282 6.27928 14.4762C6.27928 14.2253 6.19082 14.0071 6.01605 13.8286ZM6.01605 13.8286L5.92673 13.9161L6.01604 13.8286C6.01604 13.8286 6.01604 13.8286 6.01605 13.8286ZM6.00816 10.6447C5.82945 10.8151 5.61161 10.9008 5.36168 10.9008C5.11082 10.9008 4.89508 10.8127 4.72294 10.6368C4.5515 10.4616 4.46571 10.2451 4.46571 9.99513C4.46571 9.74434 4.55373 9.52729 4.72854 9.35162C4.9035 9.1758 5.12037 9.08727 5.37138 9.08727C5.62324 9.08727 5.84064 9.17805 6.01605 9.3572M6.00816 10.6447C6.1884 10.4728 6.27928 10.2568 6.27928 10.0049C6.27928 9.75391 6.19082 9.5357 6.01605 9.3572M6.00816 10.6447C6.00816 10.6447 6.00815 10.6447 6.00815 10.6447L5.92189 10.5542M6.00816 10.6447L5.92189 10.5542M6.00816 10.6447L5.92189 10.5542M6.00816 10.6447L5.92189 10.5542M6.01605 9.3572L5.92673 9.44465L6.01604 9.3572C6.01604 9.3572 6.01604 9.3572 6.01605 9.3572ZM2.65327 19.125C2.15728 19.125 1.73367 18.953 1.39036 18.6096C1.04704 18.2663 0.875 17.8427 0.875 17.3467V2.65327C0.875 2.15728 1.04704 1.73367 1.39036 1.39037C1.39036 1.39036 1.39036 1.39036 1.39037 1.39036M2.65327 19.125L1.47875 1.47875L1.39037 1.39036M2.65327 19.125H17.3467C17.8427 19.125 18.2663 18.953 18.6096 18.6096C18.953 18.2663 19.125 17.8427 19.125 17.3467V2.65327C19.125 2.15728 18.953 1.73367 18.6096 1.39037C18.2663 1.04704 17.8427 0.875 17.3467 0.875H2.65327C2.15728 0.875 1.73367 1.04703 1.39037 1.39036M2.65327 19.125L1.39037 1.39036M4.72294 6.14636L4.72295 6.14637L6.01604 4.86674C5.84063 4.68759 5.62323 4.59681 5.37138 4.59681C5.12037 4.59681 4.9035 4.68535 4.72854 4.86116C4.55373 5.03684 4.46571 5.25388 4.46571 5.50468C4.46571 5.75464 4.5515 5.97116 4.72294 6.14636ZM8.81499 14.0764L8.81498 14.0765C8.70509 14.1858 8.64514 14.3182 8.64514 14.4693C8.64514 14.6266 8.70285 14.7651 8.81342 14.879C8.92521 14.9942 9.06443 15.054 9.2242 15.054H14.8873C15.0389 15.054 15.1724 14.9955 15.2831 14.8869L15.2831 14.8869C15.3951 14.777 15.4544 14.6416 15.4544 14.4866C15.4544 14.3319 15.3954 14.1955 15.285 14.0825C15.1748 13.9697 15.0407 13.9078 14.8873 13.9078H9.2242C9.06588 13.9078 8.92714 13.9649 8.81499 14.0764ZM15.2831 5.92505L15.2831 5.92504C15.3951 5.8151 15.4544 5.67972 15.4544 5.52476C15.4544 5.37001 15.3954 5.23368 15.285 5.12068C15.1748 5.00786 15.0407 4.94598 14.8873 4.94598H9.2242C9.06588 4.94598 8.92714 5.00306 8.81499 5.11459L8.81498 5.1146C8.70509 5.22389 8.64514 5.35635 8.64514 5.50744C8.64514 5.66472 8.70285 5.80322 8.81342 5.91716C8.92521 6.03237 9.06442 6.09216 9.2242 6.09216H14.8873C15.0389 6.09216 15.1724 6.03362 15.2831 5.92505ZM9.2242 10.5636H14.8873L15.1956 10.3072L15.2831 10.3964C15.2831 10.3964 15.2831 10.3964 15.2831 10.3964C15.3951 10.2865 15.4544 10.1511 15.4544 9.99616C15.4544 9.84141 15.3954 9.70508 15.285 9.59208C15.1748 9.47926 15.0407 9.41738 14.8873 9.41738H9.2242C9.06588 9.41738 8.92714 9.47446 8.81499 9.58599C8.7051 9.69527 8.64514 9.82772 8.64514 9.97881C8.64514 10.1361 8.70285 10.2746 8.81342 10.3886C8.92521 10.5038 9.06442 10.5636 9.2242 10.5636ZM17.3411 17.9788H2.65891C2.50725 17.9788 2.36289 17.917 2.22294 17.7771C2.08299 17.6371 2.02121 17.4928 2.02121 17.3411V2.65891C2.02121 2.50725 2.08299 2.36289 2.22294 2.22294C2.36289 2.08299 2.50725 2.02121 2.65891 2.02121H17.3411C17.4928 2.02121 17.6371 2.08299 17.7771 2.22294C17.917 2.36289 17.9788 2.50725 17.9788 2.65891V17.3411C17.9788 17.4928 17.917 17.6371 17.7771 17.7771C17.6371 17.917 17.4928 17.9788 17.3411 17.9788Z" fill="black" stroke="black" stroke-width="0.25"/>
</svg>