<svg width="18" height="18" viewBox="0 0 18 18" fill="none" xmlns="http://www.w3.org/2000/svg">
<g id="Frame">
<path id="iconFill" fill-rule="evenodd" clip-rule="evenodd" d="M17 9C16.9998 7.47121 16.5616 5.97448 15.7371 4.68701C14.9127 3.39955 13.7367 2.37526 12.3482 1.73541C10.9598 1.09557 9.41705 0.866961 7.9027 1.07665C6.38836 1.28635 4.9658 1.92556 3.80345 2.91862C2.6411 3.91168 1.78764 5.21699 1.34409 6.68003C0.900549 8.14307 0.885502 9.70257 1.30073 11.1739C1.71596 12.6452 2.54408 13.9668 3.68706 14.9821C4.83003 15.9974 6.23998 16.6639 7.75 16.9028V11.3125H5.71875V9H7.75V7.2375C7.70638 6.82589 7.7538 6.40972 7.88891 6.01847C8.02401 5.62722 8.2435 5.27047 8.53182 4.97349C8.82014 4.6765 9.17024 4.44655 9.55732 4.29992C9.9444 4.1533 10.359 4.09358 10.7717 4.125C11.3717 4.13335 11.9702 4.18557 12.5625 4.28125V6.25H11.5537C11.3818 6.22719 11.207 6.24334 11.0422 6.29724C10.8774 6.35114 10.7268 6.44141 10.6016 6.56138C10.4764 6.68135 10.3798 6.82794 10.319 6.9903C10.2581 7.15266 10.2345 7.32663 10.25 7.49933V9H12.4688L12.1141 11.3125H10.25V16.9028C12.1317 16.6047 13.8453 15.6451 15.0826 14.1964C16.32 12.7478 16.9999 10.9052 17 9Z" fill="#fff"/>
</g>
</svg>
