<svg width="84" height="33" viewBox="0 0 84 33" fill="none" xmlns="http://www.w3.org/2000/svg">
<g id="Group 49">
<g id="Vector">
<path d="M9.80029 30.7286L6.54785 25.0952L11.321 16.8506L14.3541 22.1045L32.2593 22.0949L27.1786 30.8064L9.80029 30.7286Z" fill="white"/>
<path d="M9.80029 30.7286L6.54785 25.0952L11.321 16.8506L14.3541 22.1045L32.2593 22.0949L27.1786 30.8064L9.80029 30.7286Z" fill="#FFAD64"/>
</g>
<g id="Vector_2">
<path d="M35.457 16.5012L32.2046 22.1345L22.678 22.1233L25.7114 16.8695L16.7505 1.36792L26.8352 1.41217L35.457 16.5012Z" fill="white"/>
<path d="M35.457 16.5012L32.2046 22.1345L22.678 22.1233L25.7114 16.8695L16.7505 1.36792L26.8352 1.41217L35.457 16.5012Z" fill="#ADD4D3"/>
</g>
<g id="Vector_3">
<path d="M10.302 1.33789H16.8069L21.5604 9.59394L15.4937 9.59364L6.54949 25.1048L1.54541 16.3491L10.302 1.33789Z" fill="white"/>
<path d="M10.302 1.33789H16.8069L21.5604 9.59394L15.4937 9.59364L6.54949 25.1048L1.54541 16.3491L10.302 1.33789Z" fill="#FB8351"/>
</g>
<path id="Vector_4" d="M9.67664 0.25H17.4356L17.4546 0.283017L17.5984 0.283648L27.4677 0.326944L36.7112 16.504L34.3286 20.6307L34.1121 21.0057H34.1541L27.802 31.8974L9.17056 31.8141L6.76848 27.6535L6.55204 27.2787L6.54511 27.2907L0.28868 16.3437L9.67664 0.25ZM18.9275 2.8413L23.442 10.682H23.391L23.6078 11.0572L26.9675 16.8691L24.7926 20.6359L24.576 21.0112L25.0093 21.0109L31.4543 21.0075L31.5985 21.0075L31.6707 20.8825L34.13 16.6227L34.2018 16.4984L34.1305 16.3737L26.2733 2.62284L26.2017 2.49751L26.0573 2.49687L19.1452 2.46656L18.7106 2.46466L18.9275 2.8413ZM16.1772 2.55095L16.105 2.42606H15.9607H11.0701H10.9266L10.8542 2.55009L2.87422 16.2301L2.80148 16.3548L2.87311 16.4801L6.33624 22.5396L6.5519 22.9169L6.76965 22.5408L7.29117 21.6399L7.29138 21.6395L14.8648 8.50574L19.1861 8.50584L19.6194 8.50585L19.4026 8.13073L16.1772 2.55095ZM12.6431 16.7148L12.571 16.8397L12.6431 16.9646L14.91 20.8913L14.9823 21.0164L15.1267 21.0163L21.9182 21.0126L22.0624 21.0126L22.1346 20.8876L24.3822 16.9948L24.4544 16.8698L24.3821 16.7447L20.9497 10.8069L20.8775 10.682L20.7333 10.682L16.2663 10.6818L16.1218 10.6818L16.0497 10.807L12.6431 16.7148ZM7.87946 24.9759L7.8074 25.1008L7.87952 25.2257L10.3583 29.5192L10.4301 29.6436L10.5737 29.6442L26.4109 29.7151L26.5553 29.7158L26.628 29.5911L30.1245 23.5958L30.3435 23.2204L29.9088 23.2198L20.7946 23.2091L20.8061 23.1893L20.3722 23.1895L13.7261 23.1932L11.5359 19.3991L11.3197 19.0246L11.103 19.3989L9.17569 22.728L9.17548 22.7284L7.87946 24.9759Z" fill="white" stroke="#0B1D59" stroke-width="0.5"/>
<path id="Vector_5" d="M45.4165 6.70166H42.2856V20.829H50.9529V18.0608H45.4165V6.70166Z" fill="white"/>
<path id="Vector_6" d="M51.252 16.0372C51.252 19.0535 53.2757 21.0581 56.3302 21.0581C59.3657 21.0581 61.3893 19.0535 61.3893 16.0372C61.3893 13.0208 59.3657 10.9971 56.3302 10.9971C53.2757 10.9971 51.252 13.0208 51.252 16.0372ZM54.2111 16.0181C54.2111 14.5862 55.0511 13.6317 56.3302 13.6317C57.5902 13.6317 58.4302 14.5862 58.4302 16.0181C58.4302 17.469 57.5902 18.4235 56.3302 18.4235C55.0511 18.4235 54.2111 17.469 54.2111 16.0181Z" fill="white"/>
<path id="Vector_7" d="M61.8623 15.8844C61.8623 18.7672 63.7333 20.7144 66.3869 20.7144C67.666 20.7144 68.7733 20.2563 69.3269 19.5117V20.829C69.3269 22.1463 68.506 23.0244 67.0551 23.0244C65.7569 23.0244 64.8596 22.4135 64.8023 21.3253H61.8242C62.0914 23.9408 64.1151 25.6972 66.8833 25.6972C70.1478 25.6972 72.2096 23.5781 72.2096 20.2181V11.2835H69.556L69.4033 12.2572C68.8687 11.4744 67.7424 10.959 66.4442 10.959C63.7714 10.959 61.8623 12.9635 61.8623 15.8844ZM64.8405 15.8081C64.8405 14.4335 65.7569 13.5172 66.9214 13.5172C68.2769 13.5172 69.2696 14.4144 69.2696 15.8081C69.2696 17.2017 68.296 18.1562 66.9405 18.1562C65.776 18.1562 64.8405 17.2017 64.8405 15.8081Z" fill="white"/>
<path id="Vector_8" d="M73.0664 16.0372C73.0664 19.0535 75.09 21.0581 78.1446 21.0581C81.18 21.0581 83.2037 19.0535 83.2037 16.0372C83.2037 13.0208 81.18 10.9971 78.1446 10.9971C75.09 10.9971 73.0664 13.0208 73.0664 16.0372ZM76.0255 16.0181C76.0255 14.5862 76.8655 13.6317 78.1446 13.6317C79.4046 13.6317 80.2446 14.5862 80.2446 16.0181C80.2446 17.469 79.4046 18.4235 78.1446 18.4235C76.8655 18.4235 76.0255 17.469 76.0255 16.0181Z" fill="white"/>
</g>
</svg>
