<svg width="18" height="18" viewBox="0 0 18 18" fill="none" xmlns="http://www.w3.org/2000/svg">
<g id="Frame">
<path id="iconFill" fill-rule="evenodd" clip-rule="evenodd" d="M17.538 3.74701C16.9022 4.0281 16.2282 4.21313 15.538 4.29601C16.2668 3.86043 16.8122 3.17436 17.072 2.36601C16.3873 2.77247 15.6382 3.05893 14.857 3.21301C14.3315 2.65216 13.6356 2.2804 12.8773 2.15538C12.119 2.03037 11.3406 2.1591 10.6629 2.52159C9.98522 2.88409 9.44608 3.46009 9.12914 4.16025C8.8122 4.86041 8.73517 5.6456 8.90999 6.39401C7.52309 6.32461 6.16629 5.96423 4.92775 5.33625C3.68921 4.70828 2.59663 3.82678 1.72099 2.74901C1.2752 3.51699 1.13864 4.42592 1.33907 5.29099C1.53951 6.15607 2.06189 6.91233 2.79999 7.40601C2.24643 7.38862 1.70505 7.23913 1.22099 6.97001V7.01401C1.22148 7.81947 1.50056 8.59998 2.0109 9.22314C2.52124 9.8463 3.23143 10.2738 4.02099 10.433C3.50752 10.5734 2.96866 10.5939 2.44599 10.493C2.66854 11.1853 3.10175 11.7909 3.68512 12.2251C4.26849 12.6593 4.97291 12.9005 5.69999 12.915C4.46514 13.8846 2.93999 14.4104 1.36999 14.408C1.09196 14.4083 0.814153 14.3922 0.537994 14.36C2.13263 15.3847 3.98852 15.9287 5.88399 15.927C7.18993 15.9359 8.48461 15.6852 9.69281 15.1894C10.901 14.6937 11.9986 13.9627 12.9219 13.0391C13.8452 12.1154 14.5757 11.0175 15.071 9.80912C15.5662 8.60072 15.8164 7.30593 15.807 6.00001C15.807 5.84901 15.807 5.70001 15.797 5.54901C16.4796 5.0563 17.0691 4.44614 17.538 3.74701Z" fill="#fff"/>
</g>
</svg>
